<svg width="16" height="16" viewBox="0 0 16 16" fill="none" xmlns="http://www.w3.org/2000/svg">
<path fill-rule="evenodd" clip-rule="evenodd" d="M8.00004 1.83331C4.59428 1.83331 1.83337 4.59422 1.83337 7.99998C1.83337 11.4057 4.59428 14.1666 8.00004 14.1666C11.4058 14.1666 14.1667 11.4057 14.1667 7.99998C14.1667 4.59422 11.4058 1.83331 8.00004 1.83331ZM0.833374 7.99998C0.833374 4.04194 4.042 0.833313 8.00004 0.833313C11.9581 0.833313 15.1667 4.04194 15.1667 7.99998C15.1667 11.958 11.9581 15.1666 8.00004 15.1666C4.042 15.1666 0.833374 11.958 0.833374 7.99998ZM8.00004 4.83331C8.27618 4.83331 8.50004 5.05717 8.50004 5.33331V7.99998C8.50004 8.27612 8.27618 8.49998 8.00004 8.49998C7.7239 8.49998 7.50004 8.27612 7.50004 7.99998V5.33331C7.50004 5.05717 7.7239 4.83331 8.00004 4.83331ZM7.50004 10.6666C7.50004 10.3905 7.7239 10.1666 8.00004 10.1666H8.00671C8.28285 10.1666 8.50671 10.3905 8.50671 10.6666C8.50671 10.9428 8.28285 11.1666 8.00671 11.1666H8.00004C7.7239 11.1666 7.50004 10.9428 7.50004 10.6666Z" fill="#FF5959"/>
</svg>
